<svg xmlns="http://www.w3.org/2000/svg" viewBox="0 0 100 100">
  <rect width="100" height="100" rx="15" fill="#000000"/>
  <path d="M 27 8 C 43 20 43 38 27 50 C 43 62 43 80 27 92" fill="none" stroke="#00FFFF" stroke-width="3.5" stroke-linecap="round"/>
  <path d="M 45 8 C 29 20 29 38 45 50 C 29 62 29 80 45 92" fill="none" stroke="#00FFFF" stroke-width="3.5" stroke-linecap="round"/>
  <line x1="28" y1="21" x2="44" y2="21" stroke="#00FFFF" stroke-width="3" stroke-linecap="round"/>
  <line x1="32" y1="36" x2="40" y2="36" stroke="#00FFFF" stroke-width="3" stroke-linecap="round"/>
  <line x1="28" y1="50" x2="44" y2="50" stroke="#00FFFF" stroke-width="3" stroke-linecap="round"/>
  <line x1="32" y1="64" x2="40" y2="64" stroke="#00FFFF" stroke-width="3" stroke-linecap="round"/>
  <line x1="28" y1="78" x2="44" y2="78" stroke="#00FFFF" stroke-width="3" stroke-linecap="round"/>
  <path d="M 44 50 C 55 44 70 24 83 10" fill="none" stroke="#00FFFF" stroke-width="3.5" stroke-linecap="round"/>
  <path d="M 44 50 C 55 56 70 76 83 90" fill="none" stroke="#00FFFF" stroke-width="3.5" stroke-linecap="round"/>
</svg>